<svg width="3443" height="498" xmlns="http://www.w3.org/2000/svg" xmlns:xlink="http://www.w3.org/1999/xlink" xml:space="preserve" overflow="hidden"><defs><clipPath id="clip0"><rect x="2748" y="1958" width="3443" height="498"/></clipPath></defs><g clip-path="url(#clip0)" transform="translate(-2748 -1958)"><path d="M3652.02 1998.7C3679.02 1990.84 3705.96 1982.77 3733 1975 3733 2110.32 3732.98 2245.65 3732.98 2380.97 3705.98 2381.01 3679 2381.01 3652 2380.97 3652.02 2253.54 3652 2126.11 3652.02 1998.7Z" fill="#FFFFFF" fill-rule="evenodd"/><path d="M3207.01 2008.02C3297.3 2008 3387.61 2008.02 3477.91 2008 3499.44 2008.04 3521.33 2008.42 3542.19 2014.34 3556.48 2018.34 3570.26 2025.91 3579.45 2037.81 3588.81 2049.63 3593.21 2064.48 3595.85 2079.1 3600.11 2104.21 3598.73 2129.76 3598.97 2155.11 3598.69 2178.83 3597.53 2203.8 3585.87 2225.05 3577.07 2241.19 3560.74 2251.88 3543.35 2256.76 3522.11 2263 3499.76 2263.56 3477.79 2263.54 3414.78 2263.58 3351.8 2263.64 3288.8 2263.6 3288.84 2302.73 3288.82 2341.85 3288.82 2381 3261.55 2381 3234.28 2381 3207.01 2381 3206.99 2256.66 3207.01 2132.34 3207.01 2008.02M3288.82 2188.08C3353.24 2188.12 3417.64 2188.24 3482.04 2188.22 3492.84 2188.26 3505.4 2186.52 3512.18 2177.09 3520.03 2166.03 3517.37 2151.71 3517.87 2139 3517.45 2126.32 3519.71 2112.11 3512.05 2101.03 3505.76 2092.17 3494.1 2090.19 3483.96 2090.23 3418.92 2090.21 3353.88 2090.25 3288.84 2090.23 3288.8 2122.84 3288.82 2155.47 3288.82 2188.08Z" fill="#FFFFFF" fill-rule="evenodd"/><path d="M3822.02 2086C3880.62 2086.04 3939.22 2085.96 3997.82 2086.04 4022.68 2086.52 4048.41 2088.72 4071.08 2099.73 4085.85 2106.94 4098.49 2119.02 4104.86 2134.3 4111.97 2150.17 4112.9 2167.88 4112.98 2185.01 4113.02 2250.34 4113 2315.67 4113 2381 4098.65 2380.44 4083.04 2378.78 4071.81 2368.91 4062.79 2361.43 4059.14 2349.72 4057.7 2338.51 4056.28 2349.06 4050.99 2359.02 4042.48 2365.53 4027.61 2377.16 4008.06 2380.2 3989.67 2380.82 3964.24 2381.02 3938.8 2380.84 3913.38 2380.9 3890.7 2380.78 3867.74 2381.8 3845.44 2376.9 3828.11 2373.25 3810.32 2364.55 3801.77 2348.3 3790.35 2327.06 3793.58 2302.16 3793.03 2279 3792.75 2259.09 3795.52 2236.85 3810.8 2222.48 3827.73 2207.29 3851.59 2204.01 3873.47 2202.79 3903.5 2201.97 3933.53 2202.61 3963.58 2202.41 3982.29 2202.67 4001.25 2201.29 4019.72 2205.01 4024.65 2205.79 4029.07 2208.17 4033.16 2210.93 4032.94 2200.69 4033.74 2190.42 4032.84 2180.21 4032.18 2173.07 4027.75 2166.36 4021.06 2163.52 4011.28 2158.91 4000.18 2158.49 3989.57 2158.21 3931.45 2158.23 3873.31 2158.23 3815.19 2158.21 3817.44 2134.14 3819.72 2110.06 3822.02 2086M3876.44 2270.08C3873.51 2278.78 3873.51 2288.69 3877.06 2297.2 3880.82 2305.76 3890.66 2309.37 3899.49 2309.21 3929.45 2309.27 3959.44 2309.39 3989.39 2309.13 4004.69 2308.71 4022.26 2303.44 4029.75 2288.95 4034.2 2281.57 4033.18 2272.74 4033.18 2264.55 4008.56 2254.33 3981.47 2256.89 3955.49 2256.59 3936.18 2256.73 3916.88 2256.33 3897.59 2256.77 3888.84 2256.83 3879.44 2261.41 3876.44 2270.08Z" fill="#FFFFFF" fill-rule="evenodd"/><path d="M4208.86 2096.22C4230.5 2086.9 4254.53 2086.56 4277.69 2086.08 4344.98 2085.92 4412.26 2086.04 4479.55 2086.02 4476.42 2110.05 4472.76 2134.02 4469.75 2158.07 4407.03 2158.53 4344.28 2157.99 4281.56 2158.33 4274.25 2158.31 4266.33 2161.39 4263.03 2168.32 4259.1 2176.84 4259.04 2187.25 4262.79 2195.83 4266.25 2203.69 4275.35 2206.75 4283.38 2206.59 4316.71 2206.71 4350.06 2206.59 4383.38 2206.63 4407.03 2206.71 4431.49 2207.44 4453.63 2216.66 4467.05 2222.12 4478.55 2232.73 4483.75 2246.45 4490.99 2264.4 4488.46 2284.13 4488.96 2303 4489.22 2321.21 4487.98 2341.18 4476.22 2356.05 4465.35 2369.75 4447.74 2375.32 4431.11 2377.96 4407.43 2381.8 4383.34 2380.82 4359.44 2381 4295.96 2381 4232.48 2381 4169 2381 4171.84 2357.01 4175.57 2333.16 4178.98 2309.26 4246.42 2309.28 4313.87 2309.4 4381.33 2309.32 4390.15 2309.73 4400.36 2305.74 4403.01 2296.52 4405.51 2287.63 4405.67 2277.37 4401.31 2269.01 4397.42 2261.98 4388.83 2259.9 4381.37 2259.9 4342.09 2259.62 4302.81 2260.24 4263.55 2259.58 4240.19 2258.4 4214.77 2256 4195.8 2240.87 4179.98 2228.01 4175.67 2206.49 4175.89 2187.07 4176.37 2166.71 4173.89 2145.61 4180.68 2125.98 4185.21 2112.55 4195.86 2101.68 4208.86 2096.22Z" fill="#FFFFFF" fill-rule="evenodd"/><path d="M4544 2086.03C4569.52 2085.99 4595.06 2086.05 4620.6 2086.01 4620.74 2098.36 4620.62 2110.74 4620.92 2123.11 4622.48 2111.74 4629.58 2101.64 4639.55 2096.09 4657.96 2085.23 4680.14 2085.97 4700.77 2086.03 4726.81 2086.23 4754.69 2086.31 4777.81 2099.94 4791.72 2107.92 4799.52 2122.99 4802.65 2138.24 4805.35 2121.91 4813.74 2105.72 4828.63 2097.48 4851.6 2084.29 4879.06 2086.15 4904.58 2086.03 4930.14 2086.11 4957.5 2087.81 4979.43 2102.38 4996.61 2113.8 5005.83 2133.62 5009.66 2153.33 5015.28 2182.22 5013.58 2211.84 5013.94 2241.1 5013.98 2287.72 5014 2334.35 5014 2380.99 4987.44 2381.01 4960.9 2381.01 4934.36 2380.99 4934.36 2323 4934.4 2265.01 4934.36 2207.02 4934.02 2194.57 4933.9 2181.22 4927.34 2170.2 4922.29 2161.67 4912.19 2157.71 4902.64 2157.75 4885.23 2157.61 4867.85 2157.69 4850.46 2157.71 4840.59 2157.67 4829.77 2159.53 4822.56 2166.85 4816.78 2172.6 4815.32 2181.08 4815.34 2188.91 4815.34 2252.94 4815.46 2316.96 4815.46 2380.99 4789.22 2381.01 4762.98 2381.01 4736.76 2380.99 4736.76 2316.36 4737 2251.74 4736.82 2187.11 4737.1 2176.7 4732.06 2165.65 4722.07 2161.41 4709.12 2155.51 4694.45 2158.37 4680.7 2157.69 4668.71 2158.19 4656.5 2156.51 4644.65 2158.87 4632.38 2162.23 4624.66 2174.84 4623.18 2186.89 4623.08 2251.58 4623.26 2316.28 4623.18 2380.99 4596.78 2381.01 4570.4 2381.01 4544.02 2380.99 4544 2282.66 4544.02 2184.36 4544 2086.03Z" fill="#FFFFFF" fill-rule="evenodd"/><path d="M5080.01 2086.06C5105.5 2086 5130.99 2086.04 5156.5 2086.02 5156.46 2097.31 5157.15 2108.62 5156.34 2119.9 5157.53 2119.98 5158.75 2119.92 5160.03 2119.78L5157.29 2118.4C5161.07 2108.16 5168.35 2099.21 5178.33 2094.51 5198.92 2084.08 5222.69 2086.26 5245.02 2086.1 5268.91 2086.48 5294.41 2087.74 5315.2 2100.85 5328.44 2109.04 5335.85 2123.84 5338.61 2138.77 5340.97 2125.01 5346.65 2111.18 5357.83 2102.29 5373.7 2089.38 5395.05 2086.62 5414.86 2086.14 5439.07 2086.14 5463.7 2084.8 5487.47 2090.47 5503.28 2094.29 5518.83 2101.95 5529.09 2114.92 5539.86 2128.39 5544.78 2145.46 5547.3 2162.25 5550.18 2183.08 5549.96 2204.15 5549.98 2225.12 5550 2277.07 5549.98 2329.02 5550 2380.97 5523.43 2381.03 5496.88 2380.99 5470.34 2380.99 5470.38 2322.36 5470.46 2263.73 5470.36 2205.13 5470.02 2193.33 5469.6 2180.74 5463.44 2170.33 5458.42 2161.91 5448.48 2157.76 5438.99 2157.78 5420.94 2157.62 5402.87 2157.68 5384.83 2157.76 5374.58 2157.86 5363.16 2160.47 5356.69 2169.05 5351.47 2175.86 5351.23 2184.86 5351.31 2193.05 5351.43 2255.7 5351.41 2318.34 5351.41 2380.99 5325.22 2381.01 5299.03 2381.01 5272.86 2380.99 5272.86 2317.7 5272.82 2254.44 5272.88 2191.16 5272.92 2183 5272.1 2174.01 5266.43 2167.65 5259.65 2159.93 5248.89 2157.66 5239.06 2157.74 5221.77 2157.76 5204.45 2157.5 5187.18 2157.86 5171.15 2158.02 5159.53 2173.93 5159.05 2188.92 5159.11 2252.94 5159.07 2316.96 5159.07 2380.99 5132.73 2381.01 5106.36 2380.99 5080.01 2380.99 5079.99 2282.66 5080.01 2184.36 5080.01 2086.06Z" fill="#FFFFFF" fill-rule="evenodd"/><path d="M5687.87 2089.98C5710.42 2085.06 5733.6 2086.14 5756.51 2086.02 5777.84 2086.04 5799.17 2086.02 5820.5 2086.04 5841.27 2086.04 5862.44 2087.7 5882.09 2094.9 5899.79 2101.39 5915.73 2113.69 5924.75 2130.48 5934.89 2148.83 5937.68 2170.2 5937.82 2190.89 5937.96 2215.15 5937.96 2239.42 5938 2263.68 5857.17 2263.64 5776.36 2263.64 5695.55 2263.68 5695.37 2274.72 5694.56 2286.89 5701.14 2296.45 5707.32 2306.28 5719.68 2309.58 5730.65 2309.32 5797.83 2309.28 5865.01 2309.2 5932.19 2309.18 5929.12 2333.11 5926.29 2357.07 5923.2 2381 5866.27 2380.98 5809.34 2381 5752.42 2380.98 5733.12 2380.92 5713.69 2381.6 5694.59 2378.3 5674.4 2375 5653.97 2367.35 5639.7 2352.12 5624.32 2336.54 5617.96 2314.42 5615.9 2293.13 5614.32 2271.8 5615.36 2250.39 5615.06 2229.04 5615.32 2210.43 5614.38 2191.76 5615.98 2173.19 5618.04 2152.79 5624.06 2131.78 5638.23 2116.39 5651.1 2102.11 5669.27 2093.72 5687.87 2089.98M5701.26 2169.76C5693.46 2181.11 5695.85 2195.68 5695.61 2208.66 5749.37 2208.64 5803.12 2208.66 5856.87 2208.64 5856.77 2195.32 5858.25 2180.47 5850.11 2169.02 5843.98 2160.22 5832.67 2157.62 5822.57 2157.7 5791.27 2157.68 5759.96 2157.62 5728.65 2157.74 5718.4 2157.68 5707.29 2160.86 5701.26 2169.76Z" fill="#FFFFFF" fill-rule="evenodd"/><path d="M6002.03 2085.96C6028.28 2086 6054.52 2085.94 6080.77 2086 6080.77 2097.47 6081.15 2108.95 6080.89 2120.42 6083.44 2109.75 6089.71 2099.83 6099.36 2094.27 6116.36 2084.2 6136.91 2083.34 6156.15 2084.3 6168.17 2084.98 6180.09 2087.74 6191 2092.86 6187.3 2117.3 6183.41 2141.71 6179.77 2166.16 6160.82 2157.09 6139.09 2152.27 6118.24 2156.57 6103.86 2159.36 6090.89 2169.4 6085.78 2183.27 6082.46 2190.81 6083.34 2199.19 6083.3 2207.18 6083.38 2265.11 6083.3 2323.05 6083.34 2380.98 6056.22 2381.02 6029.12 2380.98 6002.01 2381 6002.03 2282.65 6001.97 2184.31 6002.03 2085.96Z" fill="#FFFFFF" fill-rule="evenodd"/><path d="M2898 1960.47C2902.9 1960.32 2907.7 1959.23 2912.57 1958.77 2959.03 1954.47 3007.48 1968.28 3043.24 1998.57 3066.72 2018.26 3084.48 2045.06 3091.96 2074.88 3099.96 2106.49 3095.98 2140.94 3080.9 2169.86 3066.38 2198.7 3041.9 2221.92 3013.51 2237 3016.18 2179.6 3009.8 2121.21 2989.86 2067.09 2982.78 2048.26 2974.17 2029.91 2962.85 2013.23 2951.02 1995.6 2936.21 1979.48 2917.72 1968.71 2911.49 1965.28 2905.02 1961.98 2898 1960.47Z" fill="#FFFFFF" fill-rule="evenodd"/><path d="M2854.07 1971.11C2856.19 1970.36 2858.45 1969.71 2860.73 1970.14 2877.92 1972.96 2893.68 1981.88 2906.4 1993.59 2919.02 2004.6 2928.98 2018.29 2937.64 2032.54 2954.31 2060.6 2964.83 2091.88 2972.07 2123.59 2984.14 2180.06 2985.11 2238.83 2975.52 2295.76 2969.87 2327.51 2960.81 2358.79 2946.68 2387.84 2935.02 2411.12 2920.01 2433.41 2899.2 2449.47 2896.7 2451.21 2894.4 2453.45 2891.33 2454.17 2875.56 2458.07 2858.58 2455.56 2844.15 2448.31 2827.58 2440.04 2814 2426.81 2803.01 2412.1 2780.19 2381.49 2767.12 2344.85 2758.36 2308.03 2744.5 2244.6 2744.53 2178.14 2758.53 2114.73 2767.56 2077.07 2781.16 2039.59 2805.08 2008.68 2817.86 1992.35 2834.13 1977.84 2854.07 1971.11Z" fill="#FFFFFF" fill-rule="evenodd"/></g></svg>