<svg width="3445" height="498" xmlns="http://www.w3.org/2000/svg" xmlns:xlink="http://www.w3.org/1999/xlink" xml:space="preserve" overflow="hidden"><defs><clipPath id="clip0"><rect x="2746" y="657" width="3445" height="498"/></clipPath></defs><g clip-path="url(#clip0)" transform="translate(-2746 -657)"><path d="M2896 659.472C2900.9 659.32 2905.7 658.231 2910.56 657.767 2957.03 653.471 3005.48 667.277 3041.23 697.571 3064.72 717.256 3082.48 744.061 3089.96 773.881 3097.96 805.486 3093.98 839.945 3078.9 868.857 3064.38 897.699 3039.9 920.924 3011.51 936 3014.18 878.599 3007.8 820.209 2987.86 766.086 2980.78 747.258 2972.17 728.914 2960.85 712.234 2949.02 694.596 2934.21 678.481 2915.72 667.711 2909.48 664.282 2903.01 660.984 2896 659.472Z" fill-rule="evenodd"/><path d="M2852.07 669.108C2854.19 668.361 2856.45 667.705 2858.73 668.139 2875.92 670.965 2891.68 679.909 2904.4 691.639 2917.02 702.673 2926.98 716.392 2935.64 730.666 2952.31 758.79 2962.83 790.134 2970.07 821.902 2982.14 878.494 2983.11 937.387 2973.52 994.432 2967.87 1026.24 2958.81 1057.59 2944.68 1086.7 2933.02 1110.03 2918.01 1132.37 2897.2 1148.46 2894.7 1150.2 2892.4 1152.45 2889.33 1153.16 2873.56 1157.08 2856.58 1154.56 2842.15 1147.3 2825.58 1139.01 2812 1125.74 2801.01 1111.01 2778.19 1080.34 2765.12 1043.62 2756.36 1006.73 2742.5 943.161 2742.53 876.566 2756.53 813.029 2765.56 775.295 2779.16 737.732 2803.08 706.761 2815.86 690.398 2832.13 675.851 2852.07 669.108Z" fill-rule="evenodd"/><path d="M3652.02 695.754C3679.02 687.883 3705.96 679.791 3733 672 3733 807.657 3732.98 943.313 3732.98 1078.97 3705.98 1079.01 3679 1079.01 3652 1078.97 3652.02 951.225 3652 823.48 3652.02 695.754Z" fill-rule="evenodd"/><path d="M3207.01 706.02C3297.3 706 3387.61 706.02 3477.91 706 3499.44 706.04 3521.33 706.42 3542.19 712.338 3556.48 716.337 3570.26 723.914 3579.45 735.81 3588.81 747.627 3593.21 762.482 3595.85 777.097 3600.11 802.209 3598.73 827.761 3598.97 853.113 3598.69 876.825 3597.53 901.797 3585.87 923.05 3577.07 939.185 3560.74 949.882 3543.35 954.76 3522.11 960.998 3499.76 961.558 3477.79 961.538 3414.78 961.578 3351.8 961.638 3288.8 961.598 3288.84 1000.73 3288.82 1039.85 3288.82 1079 3261.55 1079 3234.28 1079 3207.01 1079 3206.99 954.66 3207.01 830.34 3207.01 706.02M3288.82 886.082C3353.24 886.122 3417.64 886.242 3482.04 886.222 3492.84 886.262 3505.4 884.523 3512.18 875.086 3520.03 864.029 3517.37 849.714 3517.87 836.998 3517.45 824.322 3519.71 810.107 3512.05 799.03 3505.76 790.173 3494.1 788.194 3483.96 788.234 3418.92 788.214 3353.88 788.253 3288.84 788.234 3288.8 820.843 3288.82 853.473 3288.82 886.082Z" fill-rule="evenodd"/><path d="M3822.02 784C3880.62 784.04 3939.22 783.96 3997.82 784.04 4022.68 784.52 4048.41 786.718 4071.08 797.73 4085.85 804.945 4098.49 817.016 4104.86 832.304 4111.97 848.172 4112.9 865.879 4112.98 883.006 4113.02 948.338 4113 1013.67 4113 1079 4098.65 1078.44 4083.04 1076.78 4071.81 1066.91 4062.79 1059.43 4059.14 1047.72 4057.7 1036.51 4056.28 1047.06 4050.99 1057.02 4042.48 1063.53 4027.61 1075.16 4008.06 1078.2 3989.67 1078.82 3964.24 1079.02 3938.8 1078.84 3913.38 1078.9 3890.7 1078.78 3867.74 1079.8 3845.44 1074.9 3828.11 1071.25 3810.32 1062.55 3801.77 1046.3 3790.35 1025.06 3793.58 1000.16 3793.03 976.996 3792.75 957.091 3795.52 934.848 3810.8 920.479 3827.73 905.29 3851.59 902.012 3873.47 900.793 3903.5 899.974 3933.53 900.613 3963.58 900.413 3982.29 900.673 4001.25 899.294 4019.72 903.011 4024.65 903.791 4029.07 906.169 4033.16 908.927 4032.94 898.695 4033.74 888.422 4032.84 878.21 4032.18 871.075 4027.75 864.36 4021.06 861.522 4011.28 856.906 4000.18 856.486 3989.57 856.206 3931.45 856.226 3873.31 856.226 3815.19 856.206 3817.44 832.144 3819.72 808.062 3822.02 784M3876.44 968.083C3873.51 976.777 3873.51 986.689 3877.06 995.203 3880.82 1003.76 3890.66 1007.37 3899.49 1007.21 3929.45 1007.27 3959.44 1007.39 3989.39 1007.13 4004.69 1006.71 4022.26 1001.44 4029.75 986.949 4034.2 979.574 4033.18 970.741 4033.18 962.547 4008.56 952.335 3981.47 954.893 3955.49 954.593 3936.18 954.733 3916.88 954.333 3897.59 954.773 3888.84 954.833 3879.44 959.409 3876.44 968.083Z" fill-rule="evenodd"/><path d="M4208.86 794.22C4230.5 784.904 4254.53 784.565 4277.69 784.085 4344.98 783.925 4412.26 784.045 4479.55 784.025 4476.42 808.053 4472.76 832.021 4469.75 856.069 4407.03 856.529 4344.28 855.989 4281.56 856.329 4274.25 856.309 4266.33 859.388 4263.03 866.325 4259.1 874.84 4259.04 885.255 4262.79 893.831 4266.25 901.687 4275.35 904.746 4283.38 904.586 4316.71 904.706 4350.06 904.586 4383.38 904.626 4407.03 904.706 4431.49 905.445 4453.63 914.661 4467.05 920.118 4478.55 930.733 4483.75 944.446 4490.99 962.397 4488.46 982.128 4488.96 1001 4489.22 1019.21 4487.98 1039.18 4476.22 1054.05 4465.35 1067.75 4447.74 1073.32 4431.11 1075.96 4407.43 1079.8 4383.34 1078.82 4359.44 1079 4295.96 1079 4232.48 1079 4169 1079 4171.84 1055.01 4175.57 1031.16 4178.98 1007.26 4246.42 1007.28 4313.87 1007.4 4381.33 1007.32 4390.15 1007.73 4400.36 1003.74 4403.01 994.522 4405.51 985.626 4405.67 975.371 4401.31 967.015 4397.42 959.979 4388.83 957.899 4381.37 957.899 4342.09 957.62 4302.81 958.239 4263.55 957.58 4240.19 956.4 4214.77 954.001 4195.8 938.869 4179.98 926.015 4175.67 904.486 4175.89 885.075 4176.37 864.705 4173.89 843.615 4180.68 823.985 4185.21 810.552 4195.86 799.677 4208.86 794.22Z" fill-rule="evenodd"/><path d="M4544 784.032C4569.52 783.992 4595.06 784.052 4620.6 784.012 4620.74 796.365 4620.62 808.738 4620.92 821.111 4622.48 809.737 4629.58 799.643 4639.55 794.086 4657.96 783.232 4680.14 783.972 4700.77 784.032 4726.81 784.232 4754.69 784.311 4777.81 797.944 4791.72 805.919 4799.52 820.991 4802.65 836.242 4805.35 819.911 4813.74 803.721 4828.63 795.485 4851.6 782.293 4879.06 784.152 4904.58 784.032 4930.14 784.112 4957.5 785.811 4979.43 800.382 4996.61 811.796 5005.83 831.625 5009.66 851.334 5015.28 880.217 5013.58 909.841 5013.94 939.104 5013.98 985.718 5014 1032.35 5014 1078.99 4987.44 1079.01 4960.9 1079.01 4934.36 1078.99 4934.36 1021 4934.4 963.011 4934.36 905.023 4934.02 892.57 4933.9 879.218 4927.34 868.204 4922.29 859.669 4912.19 855.711 4902.64 855.751 4885.23 855.611 4867.85 855.691 4850.46 855.711 4840.59 855.671 4829.77 857.53 4822.56 864.846 4816.78 870.603 4815.32 879.078 4815.34 886.914 4815.34 950.938 4815.46 1014.96 4815.46 1078.99 4789.22 1079.01 4762.98 1079.01 4736.76 1078.99 4736.76 1014.36 4737 949.738 4736.82 885.115 4737.1 874.701 4732.06 863.647 4722.07 859.409 4709.12 853.513 4694.45 856.371 4680.7 855.691 4668.71 856.191 4656.5 854.512 4644.65 856.871 4632.38 860.229 4624.66 872.842 4623.18 884.895 4623.08 949.578 4623.26 1014.28 4623.18 1078.99 4596.78 1079.01 4570.4 1079.01 4544.02 1078.99 4544 980.661 4544.02 882.356 4544 784.032Z" fill-rule="evenodd"/><path d="M5080.01 784.058C5105.5 783.998 5130.99 784.038 5156.5 784.018 5156.46 795.311 5157.15 806.625 5156.34 817.898 5157.53 817.978 5158.75 817.918 5160.03 817.778L5157.29 816.399C5161.07 806.165 5168.35 797.21 5178.33 792.513 5198.92 782.079 5222.69 784.258 5245.02 784.098 5268.91 784.477 5294.41 785.737 5315.2 798.849 5328.44 807.044 5335.85 821.836 5338.61 836.767 5340.97 823.015 5346.65 809.183 5357.83 800.288 5373.7 787.376 5395.05 784.617 5414.86 784.138 5439.07 784.138 5463.7 782.798 5487.47 788.475 5503.28 792.293 5518.83 799.949 5529.09 812.921 5539.86 826.393 5544.78 843.463 5547.3 860.253 5550.18 881.081 5549.96 902.149 5549.98 923.117 5550 975.066 5549.98 1027.02 5550 1078.97 5523.43 1079.03 5496.88 1078.99 5470.34 1078.99 5470.38 1020.36 5470.46 961.734 5470.36 903.128 5470.02 891.335 5469.6 878.742 5463.44 868.328 5458.42 859.913 5448.48 855.756 5438.99 855.776 5420.94 855.616 5402.87 855.676 5384.83 855.756 5374.58 855.856 5363.16 858.474 5356.69 867.049 5351.47 873.865 5351.23 882.86 5351.31 891.055 5351.43 953.699 5351.41 1016.34 5351.41 1078.99 5325.22 1079.01 5299.03 1079.01 5272.86 1078.99 5272.86 1015.7 5272.82 952.439 5272.88 889.156 5272.92 881.001 5272.1 872.006 5266.43 865.65 5259.65 857.935 5248.89 855.656 5239.06 855.736 5221.77 855.756 5204.45 855.496 5187.18 855.856 5171.15 856.016 5159.53 871.926 5159.05 886.918 5159.11 950.94 5159.07 1014.96 5159.07 1078.99 5132.73 1079.01 5106.36 1078.99 5080.01 1078.99 5079.99 980.663 5080.01 882.36 5080.01 784.058Z" fill-rule="evenodd"/><path d="M5687.87 787.981C5710.42 783.064 5733.6 784.144 5756.51 784.024 5777.84 784.044 5799.17 784.024 5820.5 784.044 5841.27 784.044 5862.44 785.703 5882.09 792.899 5899.79 799.395 5915.73 811.688 5924.75 828.479 5934.89 846.829 5937.68 868.197 5937.82 888.885 5937.96 913.152 5937.96 937.418 5938 961.685 5857.17 961.645 5776.36 961.645 5695.55 961.685 5695.37 972.719 5694.56 984.892 5701.14 994.447 5707.32 1004.28 5719.68 1007.58 5730.65 1007.32 5797.83 1007.28 5865.01 1007.2 5932.19 1007.18 5929.12 1031.11 5926.29 1055.07 5923.2 1079 5866.27 1078.98 5809.34 1079 5752.42 1078.98 5733.12 1078.92 5713.69 1079.6 5694.59 1076.3 5674.4 1073 5653.97 1065.35 5639.7 1050.12 5624.32 1034.54 5617.96 1012.42 5615.9 991.129 5614.32 969.801 5615.36 948.392 5615.06 927.044 5615.32 908.435 5614.38 889.765 5615.98 871.195 5618.04 850.787 5624.06 829.778 5638.23 814.387 5651.1 800.115 5669.27 791.719 5687.87 787.981M5701.26 867.757C5693.46 879.111 5695.85 893.683 5695.61 906.655 5749.37 906.635 5803.12 906.655 5856.87 906.635 5856.77 893.323 5858.25 878.471 5850.11 867.017 5843.98 858.222 5832.67 855.624 5822.57 855.704 5791.27 855.684 5759.96 855.624 5728.65 855.744 5718.4 855.684 5707.29 858.862 5701.26 867.757Z" fill-rule="evenodd"/><path d="M6002.03 783.958C6028.28 783.999 6054.52 783.938 6080.77 783.999 6080.77 795.473 6081.15 806.948 6080.89 818.422 6083.44 807.747 6089.71 797.832 6099.36 792.274 6116.36 782.199 6136.91 781.34 6156.15 782.299 6168.17 782.979 6180.09 785.737 6191 790.855 6187.3 815.304 6183.41 839.712 6179.77 864.161 6160.82 855.085 6139.09 850.267 6118.24 854.565 6103.86 857.364 6090.89 867.4 6085.78 881.273 6082.46 888.809 6083.34 897.185 6083.3 905.182 6083.38 963.115 6083.3 1021.05 6083.34 1078.98 6056.22 1079.02 6029.12 1078.98 6002.01 1079 6002.03 980.646 6001.97 882.312 6002.03 783.958Z" fill-rule="evenodd"/></g></svg>