<svg width="348" height="498" xmlns="http://www.w3.org/2000/svg" xmlns:xlink="http://www.w3.org/1999/xlink" xml:space="preserve" overflow="hidden"><defs><clipPath id="clip0"><rect x="2746" y="657" width="348" height="498"/></clipPath></defs><g clip-path="url(#clip0)" transform="translate(-2746 -657)"><path d="M2896 659.472C2900.9 659.32 2905.7 658.231 2910.56 657.767 2957.03 653.471 3005.48 667.277 3041.23 697.571 3064.72 717.256 3082.48 744.061 3089.96 773.881 3097.96 805.486 3093.98 839.945 3078.9 868.857 3064.38 897.699 3039.9 920.924 3011.51 936 3014.18 878.599 3007.8 820.209 2987.86 766.086 2980.78 747.258 2972.17 728.914 2960.85 712.234 2949.02 694.596 2934.21 678.481 2915.72 667.711 2909.48 664.282 2903.01 660.984 2896 659.472Z" fill-rule="evenodd"/><path d="M2852.07 669.108C2854.19 668.361 2856.45 667.705 2858.73 668.139 2875.92 670.965 2891.68 679.909 2904.4 691.639 2917.02 702.673 2926.98 716.392 2935.64 730.666 2952.31 758.79 2962.83 790.134 2970.07 821.902 2982.14 878.494 2983.11 937.387 2973.52 994.432 2967.87 1026.24 2958.81 1057.59 2944.68 1086.7 2933.02 1110.03 2918.01 1132.37 2897.2 1148.46 2894.7 1150.2 2892.4 1152.45 2889.33 1153.16 2873.56 1157.08 2856.58 1154.56 2842.15 1147.3 2825.58 1139.01 2812 1125.74 2801.01 1111.01 2778.19 1080.34 2765.12 1043.62 2756.36 1006.73 2742.5 943.161 2742.53 876.566 2756.53 813.029 2765.56 775.295 2779.16 737.732 2803.08 706.761 2815.86 690.398 2832.13 675.851 2852.07 669.108Z" fill-rule="evenodd"/></g></svg>