<svg width="348" height="498" xmlns="http://www.w3.org/2000/svg" xmlns:xlink="http://www.w3.org/1999/xlink" xml:space="preserve" overflow="hidden"><defs><clipPath id="clip0"><rect x="2748" y="1958" width="348" height="498"/></clipPath></defs><g clip-path="url(#clip0)" transform="translate(-2748 -1958)"><path d="M2898 1960.47C2902.9 1960.32 2907.7 1959.23 2912.57 1958.77 2959.03 1954.47 3007.48 1968.28 3043.24 1998.57 3066.72 2018.26 3084.48 2045.06 3091.96 2074.88 3099.96 2106.49 3095.98 2140.94 3080.9 2169.86 3066.38 2198.7 3041.9 2221.92 3013.51 2237 3016.18 2179.6 3009.8 2121.21 2989.86 2067.09 2982.78 2048.26 2974.17 2029.91 2962.85 2013.23 2951.02 1995.6 2936.21 1979.48 2917.72 1968.71 2911.49 1965.28 2905.02 1961.98 2898 1960.47Z" fill="#FFFFFF" fill-rule="evenodd"/><path d="M2854.07 1971.11C2856.19 1970.36 2858.45 1969.71 2860.73 1970.14 2877.92 1972.96 2893.68 1981.88 2906.4 1993.59 2919.02 2004.6 2928.98 2018.29 2937.64 2032.54 2954.31 2060.6 2964.83 2091.88 2972.07 2123.59 2984.14 2180.06 2985.11 2238.83 2975.52 2295.76 2969.87 2327.51 2960.81 2358.79 2946.68 2387.84 2935.02 2411.12 2920.01 2433.41 2899.2 2449.47 2896.7 2451.21 2894.4 2453.45 2891.33 2454.17 2875.56 2458.07 2858.58 2455.56 2844.15 2448.31 2827.58 2440.04 2814 2426.81 2803.01 2412.1 2780.19 2381.49 2767.12 2344.85 2758.36 2308.03 2744.5 2244.6 2744.53 2178.14 2758.53 2114.73 2767.56 2077.07 2781.16 2039.59 2805.08 2008.68 2817.86 1992.35 2834.13 1977.84 2854.07 1971.11Z" fill="#FFFFFF" fill-rule="evenodd"/></g></svg>