<svg width="339" height="505" xmlns="http://www.w3.org/2000/svg" xmlns:xlink="http://www.w3.org/1999/xlink" xml:space="preserve" overflow="hidden"><defs><clipPath id="clip0"><rect x="2391" y="1115" width="339" height="505"/></clipPath><linearGradient x1="2523" y1="1125" x2="2523" y2="1620" gradientUnits="userSpaceOnUse" spreadMethod="reflect" id="fill1"><stop offset="0" stop-color="#008040"/><stop offset="0.12" stop-color="#008040"/><stop offset="0.86" stop-color="#00E271"/><stop offset="1" stop-color="#00E271"/></linearGradient><linearGradient x1="2565" y1="1115" x2="2565" y2="1412" gradientUnits="userSpaceOnUse" spreadMethod="reflect" id="fill2"><stop offset="0" stop-color="#BF9000" stop-opacity="0.8"/><stop offset="0.12" stop-color="#BF9000" stop-opacity="0.8"/><stop offset="0.86" stop-color="#FFC000" stop-opacity="0.701961"/><stop offset="1" stop-color="#FFC000" stop-opacity="0.701961"/></linearGradient></defs><g clip-path="url(#clip0)" transform="translate(-2391 -1115)"><path d="M2391 1372.5C2391 1235.81 2450.1 1125 2523 1125 2595.9 1125 2655 1235.81 2655 1372.5 2655 1509.19 2595.9 1620 2523 1620 2450.1 1620 2391 1509.19 2391 1372.5Z" fill="url(#fill1)" fill-rule="evenodd"/><path d="M2400 1263.5C2400 1181.49 2473.87 1115 2565 1115 2656.13 1115 2730 1181.49 2730 1263.5 2730 1345.51 2656.13 1412 2565 1412 2473.87 1412 2400 1345.51 2400 1263.5Z" fill="url(#fill2)" fill-rule="evenodd"/></g></svg>