<svg width="4602" height="860" xmlns="http://www.w3.org/2000/svg" xmlns:xlink="http://www.w3.org/1999/xlink" xml:space="preserve" overflow="hidden"><defs><clipPath id="clip0"><rect x="744" y="1238" width="4602" height="860"/></clipPath><linearGradient x1="1174" y1="1238" x2="1174" y2="2098" gradientUnits="userSpaceOnUse" spreadMethod="reflect" id="fill1"><stop offset="0" stop-color="#663300"/><stop offset="0.0133333" stop-color="#653200"/><stop offset="0.0266667" stop-color="#653200"/><stop offset="0.04" stop-color="#653200"/><stop offset="0.0533333" stop-color="#653200"/><stop offset="0.0666667" stop-color="#653200"/><stop offset="0.08" stop-color="#653200"/><stop offset="0.0933333" stop-color="#653200"/><stop offset="0.106667" stop-color="#643200"/><stop offset="0.12" stop-color="#643200"/><stop offset="0.133333" stop-color="#643200"/><stop offset="0.146667" stop-color="#633100"/><stop offset="0.16" stop-color="#633100"/><stop offset="0.173333" stop-color="#633100"/><stop offset="0.186667" stop-color="#623100"/><stop offset="0.2" stop-color="#623100"/><stop offset="0.213333" stop-color="#613000"/><stop offset="0.226667" stop-color="#613000"/><stop offset="0.24" stop-color="#603000"/><stop offset="0.253333" stop-color="#603000"/><stop offset="0.266667" stop-color="#5F2F00"/><stop offset="0.28" stop-color="#5F2F00"/><stop offset="0.293333" stop-color="#5E2F00"/><stop offset="0.306667" stop-color="#5D2E00"/><stop offset="0.32" stop-color="#5D2E00"/><stop offset="0.333333" stop-color="#5C2E00"/><stop offset="0.346667" stop-color="#5B2D00"/><stop offset="0.36" stop-color="#5A2D00"/><stop offset="0.373333" stop-color="#5A2D00"/><stop offset="0.386667" stop-color="#592C00"/><stop offset="0.4" stop-color="#582C00"/><stop offset="0.413333" stop-color="#572B00"/><stop offset="0.426667" stop-color="#562B00"/><stop offset="0.44" stop-color="#552A00"/><stop offset="0.453333" stop-color="#542A00"/><stop offset="0.466667" stop-color="#532900"/><stop offset="0.48" stop-color="#522900"/><stop offset="0.493333" stop-color="#512800"/><stop offset="0.506667" stop-color="#502800"/><stop offset="0.52" stop-color="#4F2700"/><stop offset="0.533333" stop-color="#4E2700"/><stop offset="0.546667" stop-color="#4D2600"/><stop offset="0.56" stop-color="#4C2600"/><stop offset="0.573333" stop-color="#4B2500"/><stop offset="0.586667" stop-color="#4A2500"/><stop offset="0.6" stop-color="#482400"/><stop offset="0.613333" stop-color="#472300"/><stop offset="0.626667" stop-color="#462300"/><stop offset="0.64" stop-color="#452200"/><stop offset="0.653333" stop-color="#432100"/><stop offset="0.666667" stop-color="#422100"/><stop offset="0.68" stop-color="#412000"/><stop offset="0.693333" stop-color="#3F1F00"/><stop offset="0.706667" stop-color="#3E1F00"/><stop offset="0.72" stop-color="#3C1E00"/><stop offset="0.733333" stop-color="#3B1D00"/><stop offset="0.746667" stop-color="#3A1D00"/><stop offset="0.76" stop-color="#381C00"/><stop offset="0.773333" stop-color="#371B00"/><stop offset="0.786667" stop-color="#351A00"/><stop offset="0.8" stop-color="#331900"/><stop offset="0.813333" stop-color="#321900"/><stop offset="0.826667" stop-color="#301800"/><stop offset="0.84" stop-color="#2F1700"/><stop offset="0.853333" stop-color="#2D1600"/><stop offset="0.866667" stop-color="#2B1500"/><stop offset="0.88" stop-color="#2A1500"/><stop offset="0.893333" stop-color="#281400"/><stop offset="0.906667" stop-color="#261300"/><stop offset="0.92" stop-color="#241200"/><stop offset="0.933333" stop-color="#231100"/><stop offset="0.946667" stop-color="#211000"/><stop offset="0.96" stop-color="#1F0F00"/><stop offset="0.973333" stop-color="#1D0E00"/><stop offset="0.986667" stop-color="#1B0D00"/><stop offset="1" stop-color="#1A0D00"/></linearGradient><linearGradient x1="1142" y1="1450" x2="1142" y2="1945" gradientUnits="userSpaceOnUse" spreadMethod="reflect" id="fill2"><stop offset="0" stop-color="#008040"/><stop offset="0.12" stop-color="#008040"/><stop offset="0.86" stop-color="#00E271"/><stop offset="1" stop-color="#00E271"/></linearGradient><linearGradient x1="1185" y1="1441" x2="1185" y2="1738" gradientUnits="userSpaceOnUse" spreadMethod="reflect" id="fill3"><stop offset="0" stop-color="#BF9000" stop-opacity="0.8"/><stop offset="0.12" stop-color="#BF9000" stop-opacity="0.8"/><stop offset="0.86" stop-color="#FFC000" stop-opacity="0.701961"/><stop offset="1" stop-color="#FFC000" stop-opacity="0.701961"/></linearGradient></defs><g clip-path="url(#clip0)" transform="translate(-744 -1238)"><path d="M2294.04 1417.65C2326.33 1408.03 2358.63 1398.54 2390.94 1389 2391 1551.95 2390.84 1714.9 2391 1877.85 2358.67 1878.11 2326.33 1877.95 2294 1877.93 2294.06 1724.5 2294.08 1571.06 2294.04 1417.65Z" fill="#653300" fill-rule="evenodd"/><path d="M1758 1429C1870.83 1429.12 1983.63 1428.98 2096.46 1429.08 2122.09 1429.5 2148.34 1431.02 2172.53 1440.28 2192.17 1447.51 2208.64 1462.78 2216.85 1482.07 2229.06 1510.48 2229.9 1542.03 2229.96 1572.48 2229.62 1604.26 2231.9 1636.69 2223.39 1667.7 2218.8 1684.71 2209.88 1701 2195.89 1712.04 2182.33 1722.9 2165.47 1728.77 2148.56 1731.95 2122.17 1737.16 2095.13 1736.54 2068.38 1736.58 1997.76 1736.64 1927.12 1736.64 1856.5 1736.74 1856.52 1783.82 1856.5 1830.88 1856.52 1877.96 1823.67 1878.02 1790.85 1877.96 1758.02 1878 1757.98 1728.33 1758 1578.65 1758 1429M1856.42 1528.19C1856.64 1567.37 1856.44 1606.58 1856.52 1645.77 1932.47 1645.83 2008.4 1645.89 2084.35 1645.91 2096.5 1646.09 2109.86 1645.91 2120 1638.25 2129.2 1631.46 2132.29 1619.42 2132.31 1608.5 2132.31 1593.76 2132.43 1579.01 2132.23 1564.29 2131.85 1553.53 2128.82 1541.69 2119.66 1535.06 2108.86 1527.39 2094.95 1527.87 2082.33 1527.91 2007.02 1528.11 1931.71 1527.79 1856.42 1528.19Z" fill="#653300" fill-rule="evenodd"/><path d="M5230.66 1536.1C5245.33 1524.57 5264.52 1521.2 5282.71 1520.19 5304.16 1519.33 5326.59 1521.08 5346 1531.11 5341.2 1560.39 5336.88 1589.73 5332.35 1619.06 5317.93 1612.44 5302.66 1606.94 5286.69 1606.04 5269.7 1604.64 5251.39 1606.44 5237.14 1616.61 5225.06 1625.14 5216.99 1639.52 5216.59 1654.38 5216.67 1728.92 5216.65 1803.45 5216.65 1877.99 5184.09 1877.99 5151.54 1878.03 5119 1877.97 5119 1759.42 5119 1640.9 5119 1522.36 5150.54 1522.46 5182.09 1522.22 5213.65 1522.48 5213.53 1537.1 5213.85 1551.72 5213.49 1566.35 5215.57 1554.67 5221.05 1543.38 5230.66 1536.1Z" fill="#653300" fill-rule="evenodd"/><path d="M2497.89 1522C2558.93 1522.02 2619.95 1522.08 2680.96 1522.06 2718.82 1521.84 2758.33 1521.46 2793.63 1537.16 2814.06 1546.01 2831.13 1562.84 2838.82 1583.98 2845.62 1601.73 2846.94 1620.99 2846.86 1639.82 2846.9 1719.21 2847 1798.61 2847 1878 2828.67 1877.72 2808.42 1874.79 2794.99 1861.01 2785.5 1851.64 2782.18 1838.22 2780.4 1825.41 2779.74 1843.58 2766.77 1858.94 2751 1866.63 2727.55 1878.54 2700.57 1878.14 2674.96 1877.94 2637.66 1877.72 2600.35 1878.4 2563.05 1877.54 2536.18 1875.99 2506.68 1872.72 2485.65 1854.1 2466.41 1836.82 2462.71 1809.21 2463.07 1784.65 2463.81 1758.97 2460.15 1732.07 2470.14 1707.65 2476.28 1692.15 2489.19 1679.96 2504.52 1673.74 2525.41 1664.9 2548.42 1663.11 2570.84 1662.59 2606.9 1662.41 2642.96 1662.57 2679.02 1662.51 2696.97 1662.61 2715.1 1661.91 2732.85 1665.18 2739.46 1666.47 2746.44 1668.29 2751.08 1673.56 2750.42 1660.26 2752.38 1646.87 2750.46 1633.66 2749.14 1624.92 2742.68 1617.66 2734.57 1614.54 2722.65 1609.8 2709.58 1609.36 2696.91 1609.12 2627.81 1609.1 2558.71 1609.22 2489.61 1609.08 2492.35 1580.05 2495.07 1551.01 2497.89 1522M2569.38 1734.8C2562.71 1740.7 2560.73 1750.04 2560.61 1758.59 2560.51 1767.22 2561.89 1776.72 2568.13 1783.21 2573.84 1789.45 2582.62 1791.42 2590.77 1791.46 2623.47 1791.5 2656.19 1791.44 2688.89 1791.48 2708.24 1792.06 2730.63 1788.95 2743.44 1772.72 2751.78 1762.83 2752.18 1749.31 2750.84 1737.06 2734.21 1731.04 2716.62 1728.07 2698.97 1727.99 2664.29 1727.81 2629.61 1727.99 2594.93 1727.89 2586.09 1727.89 2576.3 1728.63 2569.38 1734.8Z" fill="#653300" fill-rule="evenodd"/><path d="M2973.88 1529.94C2997.78 1523.02 3022.93 1522.29 3047.68 1522.11 3127.97 1522.03 3208.27 1521.97 3288.56 1522.01 3284.43 1551.11 3280.78 1580.28 3276.19 1609.3 3202.01 1608.95 3127.83 1609.24 3053.63 1609.16 3044.09 1608.85 3032.96 1611.18 3027.86 1620.2 3022.61 1630.28 3022.65 1642.85 3026.44 1653.43 3029.87 1662.75 3040.02 1667.45 3049.46 1667.47 3081.57 1667.79 3113.69 1667.51 3145.82 1667.61 3173.61 1667.79 3201.67 1666.48 3229.16 1671.5 3249.82 1675.16 3271.29 1682.87 3284.69 1699.89 3298.11 1716.88 3300.39 1739.47 3299.95 1760.39 3299.37 1784.91 3302.5 1810.63 3292.85 1833.9 3286.68 1849.28 3273.48 1861.01 3258.16 1866.87 3233.39 1876.55 3206.32 1877.39 3180.05 1877.93 3091.37 1878.05 3002.68 1877.97 2914 1877.97 2917.47 1849.08 2921.72 1820.31 2925.99 1791.53 3006.63 1791.51 3087.24 1791.53 3167.88 1791.53 3175.72 1791.53 3184.44 1790.81 3190.5 1785.19 3196.67 1779.49 3198.24 1770.59 3198.38 1762.56 3198.44 1753.91 3197.08 1744.19 3190.38 1738.02 3184.26 1732.54 3175.66 1731.78 3167.84 1731.8 3135.07 1731.82 3102.3 1731.82 3069.56 1731.82 3037.33 1731.7 3004.26 1733.08 2973.16 1723.2 2955.37 1717.68 2938.57 1706.24 2930.58 1688.91 2919.82 1666.86 2922.7 1641.7 2922.3 1617.99 2921.96 1597.63 2922.9 1575.99 2933.77 1558.1 2942.52 1543.6 2957.92 1534.5 2973.88 1529.94Z" fill="#653300" fill-rule="evenodd"/><path d="M3366.16 1522.02C3396.79 1522 3427.43 1522.02 3458.1 1522 3458.26 1536.4 3458.12 1550.81 3458.58 1565.23 3461.38 1548.88 3474.1 1536.03 3489.09 1530.07 3514.25 1519.57 3542.04 1522.5 3568.6 1522.16 3596.29 1522.92 3625.92 1524.87 3649.76 1540.55 3665.42 1550.67 3673.95 1568.56 3677.09 1586.49 3679.43 1568.06 3688.05 1549.65 3703.63 1538.91 3723.04 1525.29 3747.54 1522.56 3770.59 1522.16 3793.85 1522.22 3817.28 1521.16 3840.38 1524.51 3859.71 1527.24 3879.27 1533.06 3894.67 1545.53 3908.66 1556.49 3917.56 1572.74 3922.5 1589.6 3929.4 1613.09 3930.68 1637.79 3930.92 1662.15 3931.04 1734.09 3930.98 1806.01 3931 1877.92 3899.11 1878.01 3867.23 1877.94 3835.36 1877.94 3835.4 1817.39 3835.38 1756.85 3835.38 1696.3 3835.14 1680.92 3835.98 1665.5 3834.62 1650.18 3833.5 1638.71 3830.78 1626.51 3822.5 1618.01 3815.22 1610.71 3804.55 1608.42 3794.59 1608.48 3774.53 1608.46 3754.44 1608.44 3734.38 1608.5 3723.2 1608.56 3711.13 1610.36 3702.43 1618.01 3695.03 1624.42 3692.13 1634.58 3692.27 1644.12 3692.27 1722.06 3692.43 1800.02 3692.35 1877.97 3660.84 1877.92 3629.34 1878.01 3597.85 1877.92 3597.85 1799.26 3598.13 1720.61 3597.83 1641.95 3597.95 1629.26 3590.55 1616.57 3578.41 1612.11 3563.16 1606.27 3546.52 1609.18 3530.64 1608.48 3517.19 1608.84 3503.67 1607.69 3490.31 1609.12 3473.82 1611.77 3462.88 1628.17 3461.2 1643.93 3461.16 1721.94 3461.3 1799.92 3461.28 1877.92 3429.51 1877.82 3397.75 1878.29 3366 1877.68 3366.34 1759.14 3366.04 1640.56 3366.16 1522.02Z" fill="#653300" fill-rule="evenodd"/><path d="M4010 1522C4040.65 1522.02 4071.31 1522 4101.96 1522 4102.06 1537.96 4102.26 1553.95 4102.24 1569.91 4102.76 1556.68 4110.03 1544.41 4120.77 1536.92 4137.2 1525.29 4157.97 1522.5 4177.6 1522.16 4206.37 1522.14 4235.61 1520.9 4263.78 1527.8 4279.11 1531.58 4294.37 1538.4 4304.98 1550.49 4313.8 1560.29 4318.44 1573.1 4320.83 1585.93 4323.65 1570.27 4329.67 1554.49 4341.74 1543.67 4357.9 1528.91 4380.39 1524.17 4401.56 1522.66 4419.61 1521.7 4437.7 1522.12 4455.77 1522.22 4481.14 1523.02 4507.57 1526.12 4529.82 1539.29 4546.31 1548.99 4558.28 1565.21 4564.42 1583.24 4575.69 1615.59 4574.95 1650.39 4574.98 1684.18 4575 1748.77 4575 1813.37 4574.98 1877.96 4543.09 1877.92 4511.17 1878.1 4479.28 1877.88 4479.44 1816 4479.36 1754.11 4479.38 1692.23 4479.08 1675.42 4480.4 1658.46 4477.48 1641.83 4475.72 1632.07 4471.9 1622.01 4463.89 1615.75 4456.57 1609.95 4446.94 1608.44 4437.88 1608.48 4417.81 1608.48 4397.74 1608.42 4377.69 1608.52 4366.61 1608.62 4354.64 1610.55 4346.16 1618.3 4338.95 1624.62 4336.15 1634.54 4336.25 1643.9 4336.25 1721.91 4336.35 1799.93 4336.33 1877.94 4304.84 1878.04 4273.32 1877.9 4241.85 1878 4241.69 1799.99 4242.01 1721.99 4241.87 1643.98 4241.97 1633.54 4238.33 1622.38 4229.54 1616.13 4219.3 1608.58 4205.99 1608.28 4193.81 1608.46 4175.02 1608.66 4156.23 1608.14 4137.48 1608.7 4119.49 1609.64 4106.81 1627.09 4105.1 1643.94 4105.1 1721.95 4105.2 1799.95 4105.14 1877.98 4073.43 1877.98 4041.73 1877.96 4010.02 1877.98 4009.98 1759.31 4010.04 1640.67 4010 1522Z" fill="#653300" fill-rule="evenodd"/><path d="M4686.05 1554.15C4711.86 1530.32 4748.49 1523.97 4782.41 1523.15 4821.11 1522.85 4859.82 1523.11 4898.52 1523.01 4935.16 1522.81 4975.07 1526.61 5004.65 1550.5 5030.81 1571.57 5040.51 1606.35 5041.67 1638.71 5042.27 1671.37 5041.83 1704.03 5041.99 1736.7 4944.67 1736.76 4847.37 1736.68 4750.05 1736.74 4749.95 1749.68 4748.71 1763.76 4755.95 1775.21 4762.58 1786.38 4775.94 1791.57 4788.49 1791.65 4870.66 1791.79 4952.86 1791.53 5035.05 1791.77 5031.47 1820.5 5027.82 1849.22 5024.22 1877.93 4960.96 1877.91 4897.72 1877.93 4834.48 1877.93 4794.32 1877.43 4752.23 1881.3 4714.38 1865 4689.89 1854.98 4670.3 1834.14 4661.81 1809.07 4654.69 1789.19 4652.85 1767.86 4653.03 1746.88 4653.15 1711.49 4652.79 1676.11 4653.23 1640.73 4654.15 1609.49 4662.41 1576.11 4686.05 1554.15M4756.15 1624.63C4747.49 1638.37 4750.51 1655.29 4750.07 1670.65 4814.85 1670.67 4879.61 1670.67 4944.39 1670.67 4944.15 1656.81 4945.77 1642.23 4939.99 1629.22 4936.59 1621.19 4929.8 1614.78 4921.6 1611.94 4910.27 1607.99 4898.12 1609.43 4886.39 1609.17 4853.69 1609.23 4820.99 1609.03 4788.29 1609.25 4776.08 1609.37 4762.86 1613.78 4756.15 1624.63Z" fill="#653300" fill-rule="evenodd"/><path d="M744 1668C744 1430.52 936.517 1238 1174 1238 1411.48 1238 1604 1430.52 1604 1668 1604 1905.48 1411.48 2098 1174 2098 936.517 2098 744 1905.48 744 1668Z" fill="url(#fill1)" fill-rule="evenodd"/><path d="M1010 1697.5C1010 1560.81 1069.1 1450 1142 1450 1214.9 1450 1274 1560.81 1274 1697.5 1274 1834.19 1214.9 1945 1142 1945 1069.1 1945 1010 1834.19 1010 1697.5Z" fill="url(#fill2)" fill-rule="evenodd"/><path d="M1020 1589.5C1020 1507.49 1093.87 1441 1185 1441 1276.13 1441 1350 1507.49 1350 1589.5 1350 1671.51 1276.13 1738 1185 1738 1093.87 1738 1020 1671.51 1020 1589.5Z" fill="url(#fill3)" fill-rule="evenodd"/></g></svg>